<?xml version="1.0" encoding="utf-8"?>
<!-- Generator: Adobe Illustrator 15.0.0, SVG Export Plug-In . SVG Version: 6.00 Build 0)  -->
<!DOCTYPE svg PUBLIC "-//W3C//DTD SVG 1.1//EN" "http://www.w3.org/Graphics/SVG/1.1/DTD/svg11.dtd">
<svg version="1.1" id="Layer_1" xmlns="http://www.w3.org/2000/svg" xmlns:xlink="http://www.w3.org/1999/xlink" x="0px" y="0px"
	 width="348.12px" height="86.58px" viewBox="0 0 348.12 86.58" enable-background="new 0 0 348.12 86.58" xml:space="preserve">
<g>
	<path fill="#4D4D4F" d="M0,26.6h10.37v6.56h0.17c2.24-4.74,6.82-7.59,12.25-7.59c1.29,0,2.51,0.26,3.72,0.6V36.2
		c-1.73-0.45-3.37-0.78-5.02-0.78c-9.76,0-11.13,8.2-11.13,10.45v22.21H0V26.6z"/>
	<path fill="#4D4D4F" d="M77.33,7.69c3.81,0,6.74,2.69,6.74,6.23c0,3.54-2.93,6.22-6.74,6.22c-3.79,0-6.56-2.94-6.56-6.22
		C70.76,10.64,73.53,7.69,77.33,7.69z M72.23,26.6H82.6v41.47H72.23V26.6z"/>
	<path fill="#4D4D4F" d="M91.93,26.6h9.84v6.65h0.18c1.89-4.15,5.79-7.68,12.7-7.68c11.14,0,15.11,7.87,15.11,16.33v26.17H119.4
		V47.08c0-4.59-0.35-12.19-7.6-12.19c-6.82,0-9.5,5.02-9.5,10.55v22.64H91.93V26.6z"/>
	<path fill="#4D4D4F" d="M170.39,61.85h-0.17c-3.02,5-8.46,7.25-14.25,7.25c-12.78,0-20.47-9.5-20.47-21.77
		c0-12.25,8.2-21.76,20.03-21.76c7.78,0,11.92,3.63,14.09,6.3h0.25V10.33h10.38v57.75h-9.86V61.85z M158.04,59.79
		c7.6,0,12.19-5.96,12.19-12.46c0-6.47-4.58-12.44-12.19-12.44c-7.59,0-12.18,5.97-12.18,12.44
		C145.86,53.83,150.45,59.79,158.04,59.79z"/>
	<path fill="#4D4D4F" d="M189.39,26.6h10.36v6.56h0.19c2.23-4.74,6.82-7.59,12.26-7.59c1.29,0,2.5,0.26,3.72,0.6V36.2
		c-1.73-0.45-3.38-0.78-5.02-0.78c-9.75,0-11.15,8.2-11.15,10.45v22.21h-10.36V26.6z"/>
	<path fill="#4D4D4F" d="M225.68,7.69c3.79,0,6.73,2.69,6.73,6.23c0,3.54-2.94,6.22-6.73,6.22c-3.81,0-6.57-2.94-6.57-6.22
		C219.11,10.64,221.87,7.69,225.68,7.69z M220.58,26.6h10.35v41.47h-10.35V26.6z"/>
	<path fill="#4D4D4F" d="M240.26,26.6h9.85v6.22h0.18c3.02-5,8.47-7.25,14.25-7.25c12.78,0,20.46,9.5,20.46,21.76
		c0,12.27-8.19,21.77-20.03,21.77c-7.78,0-11.92-3.62-14.07-6.3h-0.27v20.94h-10.37V26.6z M262.47,34.89
		c-7.61,0-12.18,5.97-12.18,12.44c0,6.5,4.58,12.46,12.18,12.46c7.6,0,12.18-5.96,12.18-12.46
		C274.65,40.86,270.08,34.89,262.47,34.89z"/>
	<path fill="#8DC63F" d="M314.25,20.76c0,11.48-11.71,20.78-11.71,20.78s-11.72-9.3-11.72-20.78C290.81,9.3,302.54,0,302.54,0
		S314.25,9.3,314.25,20.76z"/>
	<path fill="#006227" d="M327.35,57.18c-11.46,0-20.76-11.72-20.76-11.72s9.3-11.72,20.76-11.72c11.47,0,20.77,11.72,20.77,11.72
		S338.83,57.18,327.35,57.18z"/>
	
		<linearGradient id="SVGID_1_" gradientUnits="userSpaceOnUse" x1="-957.4565" y1="271.2354" x2="-957.4565" y2="307.7793" gradientTransform="matrix(1 0 0 1 1260.3301 -224.4805)">
		<stop  offset="0" style="stop-color:#FFFFFF"/>
		<stop  offset="1" style="stop-color:#0096D6"/>
	</linearGradient>
	<path fill="url(#SVGID_1_)" d="M314.29,72.03c0,10.4-5.1,14.55-11.41,14.55c-6.31,0-11.43-4.15-11.43-14.55
		c0-10.39,11.43-23.09,11.43-23.09S314.29,61.65,314.29,72.03z"/>
	<path fill="#4D4D4F" d="M293.88,41.67c2.18,0,3.96,1.77,3.96,3.96c0,2.18-1.79,3.95-3.96,3.95c-2.21,0-3.97-1.77-3.97-3.95
		C289.91,43.44,291.68,41.67,293.88,41.67z M297.13,45.63c0-1.84-1.45-3.31-3.25-3.31c-1.81,0-3.27,1.47-3.27,3.31
		c0,1.83,1.46,3.32,3.27,3.32C295.68,48.95,297.13,47.47,297.13,45.63z M292.29,43.33h1.79c1.02,0,1.59,0.45,1.59,1.36
		c0,0.83-0.55,1.2-1.25,1.28l1.32,2h-0.71l-1.29-1.94H293v1.94h-0.7V43.33z M293.74,45.39c0.66,0,1.22-0.02,1.22-0.73
		c0-0.61-0.52-0.68-1-0.68H293v1.41H293.74z"/>
	<path fill="#4D4D4F" d="M45.82,25.58c-5.63,0-11.17,1.46-15.53,4.81l5.66,5.49c2.47-1.56,5.5-2.54,8.72-2.54
		c5.54,0,9.52,2.68,9.52,7.78v1.13h-2.6c-10.37,0-26.09,0.95-26.09,14.43c0,8.2,7.45,12.42,15.12,12.42c5.53,0,10.37-2.07,13.3-6.74
		h0.27v5.71h9.32V44.22C63.51,38.35,63.51,25.58,45.82,25.58z M53.57,50.9c0,5.79-3.36,10.44-10.44,10.44
		c-3.36,0-7.25-1.64-7.25-5.44c0-5.96,9.85-6.39,15.55-6.39h2.15V50.9z"/>
</g>
</svg>
